<svg xmlns="http://www.w3.org/2000/svg" width="1200" height="1800" viewBox="0 0 1200 1800"><rect width="1200" height="1800" fill="#f5f8fa"/><rect x="52" y="48" width="1096" height="1704" rx="8" fill="#fff" stroke="#dbe5e9" stroke-width="2"/><rect x="52" y="48" width="1096" height="12" fill="#397b96"/><style>.cn{font-family:"Microsoft YaHei","Noto Sans CJK SC",sans-serif;fill:#173247}.title{font-size:42px;font-weight:700}.subtitle{font-size:18px;fill:#6a7d88}.stage{font-size:26px;font-weight:700}.body{font-size:20px}.small{font-size:17px;fill:#607681}.num{font-size:28px;font-weight:700;fill:#fff}</style><text x="600" y="132" text-anchor="middle" class="cn title">智能推荐系统核心流程</text><text x="600" y="172" text-anchor="middle" class="cn subtitle">从用户行为理解到个性化内容分发的完整闭环</text><line x1="152" y1="210" x2="1048" y2="210" stroke="#e4ecef" stroke-width="2"/>
<g><rect x="150" y="250" width="900" height="220" rx="8" fill="#eaf5f6" stroke="#78b9bb" stroke-width="3"/><circle cx="214" cy="314" r="34" fill="#397b96"/><text x="214" y="324" text-anchor="middle" class="cn num">01</text><text x="274" y="323" class="cn stage">用户行为与偏好采集</text><text x="190" y="380" class="cn body">注册信息　·　浏览 / 搜索　·　收藏 / 点赞　·　评分 / 跳过</text><text x="190" y="424" class="cn small">统一接入显式偏好与隐式行为，形成可追踪的用户兴趣信号</text></g><line x1="600" y1="470" x2="600" y2="540" stroke="#397b96" stroke-width="4" marker-end="url(#arrow)"/>
<g><rect x="150" y="550" width="900" height="220" rx="8" fill="#eff5fc" stroke="#83a9cc" stroke-width="3"/><circle cx="214" cy="614" r="34" fill="#3f719c"/><text x="214" y="624" text-anchor="middle" class="cn num">02</text><text x="274" y="623" class="cn stage">用户画像构建与兴趣聚类</text><text x="190" y="680" class="cn body">标签提取　·　兴趣强度计算　·　用户分群　·　冷启动补全</text><text x="190" y="724" class="cn small">将离散行为沉淀为年龄、场景、主题、偏好强度等可解释画像标签</text></g>
<g><rect x="150" y="850" width="900" height="245" rx="8" fill="#fff7e9" stroke="#e0b86b" stroke-width="3"/><circle cx="214" cy="914" r="34" fill="#c18136"/><text x="214" y="924" text-anchor="middle" class="cn num">03</text><text x="274" y="923" class="cn stage">内容特征提取与多维量化</text><text x="190" y="978" class="cn body">主题相关度　　内容质量　　时效性 / 新鲜度</text><text x="190" y="1043" class="cn small">结构化内容标签，统一计算候选内容与用户画像之间的匹配特征</text></g>
<g><rect x="150" y="1175" width="900" height="250" rx="8" fill="#f2eefb" stroke="#a996cf" stroke-width="3"/><circle cx="214" cy="1239" r="34" fill="#725b9d"/><text x="214" y="1249" text-anchor="middle" class="cn num">04</text><text x="274" y="1248" class="cn stage">候选内容综合评分与排序</text><text x="190" y="1304" class="cn body">综合得分 = 0.5 × 相关度 + 0.3 × 质量 + 0.2 × 新鲜度</text><text x="190" y="1350" class="cn small">去重、过滤低质内容，结合业务规则完成最终候选集排序</text><text x="190" y="1384" class="cn small">根据实时反馈动态调整权重，保持推荐结果的稳定性与多样性</text></g>
<g><rect x="150" y="1506" width="900" height="185" rx="8" fill="#eaf6ee" stroke="#82b897" stroke-width="3"/><circle cx="214" cy="1570" r="34" fill="#3d8a5b"/><text x="214" y="1580" text-anchor="middle" class="cn num">05</text><text x="274" y="1579" class="cn stage">个性化推荐输出与反馈回流</text><text x="190" y="1634" class="cn body">首页推荐　·　相关推荐　·　专题 / 场景推荐</text><text x="190" y="1670" class="cn small">持续收集点击、停留、收藏与跳过行为，回流至画像更新与下一轮排序</text></g><text x="600" y="1730" text-anchor="middle" class="cn small">数据采集　→　用户理解　→　特征量化　→　智能排序　→　推荐反馈</text></svg>
